<?xml version="1.0" encoding="utf-8"?>
<svg width="449" height="767" viewBox="0 0 449 767" xmlns="http://www.w3.org/2000/svg">
<rect id="frame" x="0" y="0" width="449" height="767" fill="#f5f5f5" stroke="none" stroke-width="0"/>

<!-- Association Linked to -->
<g>
	<line x1="137" y1="228" x2="137" y2="127" stroke="#35978f" stroke-width="2"/>
	<text x="142" y="169" fill="#8c510a" font-family="Verdana" font-size="12">0,N</text>
	<line x1="137" y1="43" x2="137" y2="127" stroke="#35978f" stroke-width="2"/>
	<text x="142" y="94" fill="#8c510a" font-family="Verdana" font-size="12">0,N</text>
	<g>
		<path d="M159 102 a14 14 90 0 1 14 14 V127 h-72 V116 a14 14 90 0 1 14 -14" fill="#80cdc1" stroke="#80cdc1" stroke-width="0"/>
		<path d="M173 127 v11 a14 14 90 0 1 -14 14 H115 a14 14 90 0 1 -14 -14 V127 H72" fill="#c7eae5" stroke="#c7eae5" stroke-width="0"/>
		<rect x="101" y="102" width="72" height="50" fill="none" rx="14" stroke="#35978f" stroke-width="2"/>
		<line x1="101" y1="127" x2="173" y2="127" stroke="#35978f" stroke-width="1"/>
		<text x="109" y="119.75" fill="#000" font-family="Verdana" font-size="12">Linked to</text>
	</g>
</g>

<!-- Association Has -->
<g>
	<line x1="137" y1="228" x2="241" y2="228" stroke="#35978f" stroke-width="2"/>
	<text x="181" y="245" fill="#8c510a" font-family="Verdana" font-size="12">0,N</text>
	<line x1="340" y1="329" x2="241" y2="228" stroke="#35978f" stroke-width="2"/>
	<text x="274" y="299.24" fill="#8c510a" font-family="Verdana" font-size="12">0,N</text>
	<g>
		<path d="M246 203 a14 14 90 0 1 14 14 V228 h-38 V217 a14 14 90 0 1 14 -14" fill="#80cdc1" stroke="#80cdc1" stroke-width="0"/>
		<path d="M260 228 v11 a14 14 90 0 1 -14 14 H236 a14 14 90 0 1 -14 -14 V228 H38" fill="#c7eae5" stroke="#c7eae5" stroke-width="0"/>
		<rect x="222" y="203" width="38" height="50" fill="none" rx="14" stroke="#35978f" stroke-width="2"/>
		<line x1="222" y1="228" x2="260" y2="228" stroke="#35978f" stroke-width="1"/>
		<text x="230" y="220.75" fill="#000" font-family="Verdana" font-size="12">Has</text>
	</g>
</g>

<!-- Association Access to -->
<g>
	<line x1="137" y1="228" x2="45" y2="329" stroke="#35978f" stroke-width="2"/>
	<text x="71" y="269.42" fill="#8c510a" font-family="Verdana" font-size="12">0,N</text>
	<line x1="137" y1="430" x2="45" y2="329" stroke="#35978f" stroke-width="2"/>
	<text x="74" y="400.87" fill="#8c510a" font-family="Verdana" font-size="12">0,N</text>
	<g>
		<path d="M67 304 a14 14 90 0 1 14 14 V329 h-72 V318 a14 14 90 0 1 14 -14" fill="#80cdc1" stroke="#80cdc1" stroke-width="0"/>
		<path d="M81 329 v11 a14 14 90 0 1 -14 14 H23 a14 14 90 0 1 -14 -14 V329 H72" fill="#c7eae5" stroke="#c7eae5" stroke-width="0"/>
		<rect x="9" y="304" width="72" height="50" fill="none" rx="14" stroke="#35978f" stroke-width="2"/>
		<line x1="9" y1="329" x2="81" y2="329" stroke="#35978f" stroke-width="1"/>
		<text x="16" y="321.75" fill="#000" font-family="Verdana" font-size="12">Access to</text>
	</g>
</g>

<!-- Association Open -->
<g>
	<line x1="137" y1="228" x2="137" y2="329" stroke="#35978f" stroke-width="2"/>
	<text x="142" y="296" fill="#8c510a" font-family="Verdana" font-size="12">1,1</text>
	<line x1="137" y1="430" x2="137" y2="329" stroke="#35978f" stroke-width="2"/>
	<text x="142" y="371" fill="#8c510a" font-family="Verdana" font-size="12">0,N</text>
	<g>
		<path d="M147 304 a14 14 90 0 1 14 14 V329 h-48 V318 a14 14 90 0 1 14 -14" fill="#80cdc1" stroke="#80cdc1" stroke-width="0"/>
		<path d="M161 329 v11 a14 14 90 0 1 -14 14 H127 a14 14 90 0 1 -14 -14 V329 H48" fill="#c7eae5" stroke="#c7eae5" stroke-width="0"/>
		<rect x="113" y="304" width="48" height="50" fill="none" rx="14" stroke="#35978f" stroke-width="2"/>
		<line x1="113" y1="329" x2="161" y2="329" stroke="#35978f" stroke-width="1"/>
		<text x="121" y="321.75" fill="#000" font-family="Verdana" font-size="12">Open</text>
	</g>
</g>

<!-- Association Create1 -->
<g>
	<line x1="340" y1="329" x2="241" y2="329" stroke="#35978f" stroke-width="2"/>
	<text x="274" y="346" fill="#8c510a" font-family="Verdana" font-size="12">0,N</text>
	<line x1="137" y1="430" x2="241" y2="329" stroke="#35978f" stroke-width="2"/>
	<text x="178" y="405.11" fill="#8c510a" font-family="Verdana" font-size="12">1,1</text>
	<g>
		<path d="M255 304 a14 14 90 0 1 14 14 V329 h-56 V318 a14 14 90 0 1 14 -14" fill="#80cdc1" stroke="#80cdc1" stroke-width="0"/>
		<path d="M269 329 v11 a14 14 90 0 1 -14 14 H227 a14 14 90 0 1 -14 -14 V329 H56" fill="#c7eae5" stroke="#c7eae5" stroke-width="0"/>
		<rect x="213" y="304" width="56" height="50" fill="none" rx="14" stroke="#35978f" stroke-width="2"/>
		<line x1="213" y1="329" x2="269" y2="329" stroke="#35978f" stroke-width="1"/>
		<text x="221" y="321.75" fill="#000" font-family="Verdana" font-size="12">Create</text>
	</g>
</g>

<!-- Association Access to1 -->
<g>
	<line x1="340" y1="329" x2="241" y2="430" stroke="#35978f" stroke-width="2"/>
	<text x="274" y="367.76" fill="#8c510a" font-family="Verdana" font-size="12">0,N</text>
	<line x1="137" y1="430" x2="241" y2="430" stroke="#35978f" stroke-width="2"/>
	<text x="178" y="447" fill="#8c510a" font-family="Verdana" font-size="12">0,N</text>
	<g>
		<path d="M263 405 a14 14 90 0 1 14 14 V430 h-72 V419 a14 14 90 0 1 14 -14" fill="#80cdc1" stroke="#80cdc1" stroke-width="0"/>
		<path d="M277 430 v11 a14 14 90 0 1 -14 14 H219 a14 14 90 0 1 -14 -14 V430 H72" fill="#c7eae5" stroke="#c7eae5" stroke-width="0"/>
		<rect x="205" y="405" width="72" height="50" fill="none" rx="14" stroke="#35978f" stroke-width="2"/>
		<line x1="205" y1="430" x2="277" y2="430" stroke="#35978f" stroke-width="1"/>
		<text x="212" y="422.75" fill="#000" font-family="Verdana" font-size="12">Access to</text>
	</g>
</g>

<!-- Association Has1 -->
<g>
	<line x1="340" y1="329" x2="340" y2="430" stroke="#35978f" stroke-width="2"/>
	<text x="345" y="388" fill="#8c510a" font-family="Verdana" font-size="12">0,N</text>
	<line x1="340" y1="531" x2="340" y2="430" stroke="#35978f" stroke-width="2"/>
	<text x="345" y="489" fill="#8c510a" font-family="Verdana" font-size="12">0,N</text>
	<g>
		<path d="M345 405 a14 14 90 0 1 14 14 V430 h-38 V419 a14 14 90 0 1 14 -14" fill="#80cdc1" stroke="#80cdc1" stroke-width="0"/>
		<path d="M359 430 v11 a14 14 90 0 1 -14 14 H335 a14 14 90 0 1 -14 -14 V430 H38" fill="#c7eae5" stroke="#c7eae5" stroke-width="0"/>
		<rect x="321" y="405" width="38" height="50" fill="none" rx="14" stroke="#35978f" stroke-width="2"/>
		<line x1="321" y1="430" x2="359" y2="430" stroke="#35978f" stroke-width="1"/>
		<text x="329" y="422.75" fill="#000" font-family="Verdana" font-size="12">Has</text>
	</g>
</g>

<!-- Association Create2 -->
<g>
	<line x1="137" y1="623" x2="137" y2="531" stroke="#35978f" stroke-width="2"/>
	<text x="142" y="573" fill="#8c510a" font-family="Verdana" font-size="12">1,1</text>
	<line x1="137" y1="430" x2="137" y2="531" stroke="#35978f" stroke-width="2"/>
	<text x="110" y="498" fill="#8c510a" font-family="Verdana" font-size="12">0,N</text>
	<g>
		<path d="M151 506 a14 14 90 0 1 14 14 V531 h-56 V520 a14 14 90 0 1 14 -14" fill="#80cdc1" stroke="#80cdc1" stroke-width="0"/>
		<path d="M165 531 v11 a14 14 90 0 1 -14 14 H123 a14 14 90 0 1 -14 -14 V531 H56" fill="#c7eae5" stroke="#c7eae5" stroke-width="0"/>
		<rect x="109" y="506" width="56" height="50" fill="none" rx="14" stroke="#35978f" stroke-width="2"/>
		<line x1="109" y1="531" x2="165" y2="531" stroke="#35978f" stroke-width="1"/>
		<text x="117" y="523.75" fill="#000" font-family="Verdana" font-size="12">Create</text>
	</g>
</g>

<!-- Association Create -->
<g>
	<line x1="340" y1="531" x2="241" y2="531" stroke="#35978f" stroke-width="2"/>
	<text x="284" y="523" fill="#8c510a" font-family="Verdana" font-size="12">1,1</text>
	<line x1="137" y1="430" x2="241" y2="531" stroke="#35978f" stroke-width="2"/>
	<text x="178" y="463.89" fill="#8c510a" font-family="Verdana" font-size="12">0,N</text>
	<g>
		<path d="M255 506 a14 14 90 0 1 14 14 V531 h-56 V520 a14 14 90 0 1 14 -14" fill="#80cdc1" stroke="#80cdc1" stroke-width="0"/>
		<path d="M269 531 v11 a14 14 90 0 1 -14 14 H227 a14 14 90 0 1 -14 -14 V531 H56" fill="#c7eae5" stroke="#c7eae5" stroke-width="0"/>
		<rect x="213" y="506" width="56" height="50" fill="none" rx="14" stroke="#35978f" stroke-width="2"/>
		<line x1="213" y1="531" x2="269" y2="531" stroke="#35978f" stroke-width="1"/>
		<text x="221" y="523.75" fill="#000" font-family="Verdana" font-size="12">Create</text>
	</g>
</g>

<!-- Association Has3 -->
<g>
	<path d="M340 531 C373.67 497.67 400.67 497.67 421 531" fill="none" stroke="#35978f" stroke-width="2"/>
	<text x="375" y="527" fill="#8c510a" font-family="Verdana" font-size="12">1,1</text>
	<path d="M340 531 C374.33 564.33 401.33 564.33 421 531" fill="none" stroke="#35978f" stroke-width="2"/>
	<text x="375" y="544" fill="#8c510a" font-family="Verdana" font-size="12">0,N</text>
	<g>
		<path d="M426 506 a14 14 90 0 1 14 14 V531 h-38 V520 a14 14 90 0 1 14 -14" fill="#80cdc1" stroke="#80cdc1" stroke-width="0"/>
		<path d="M440 531 v11 a14 14 90 0 1 -14 14 H416 a14 14 90 0 1 -14 -14 V531 H38" fill="#c7eae5" stroke="#c7eae5" stroke-width="0"/>
		<rect x="402" y="506" width="38" height="50" fill="none" rx="14" stroke="#35978f" stroke-width="2"/>
		<line x1="402" y1="531" x2="440" y2="531" stroke="#35978f" stroke-width="1"/>
		<text x="410" y="523.75" fill="#000" font-family="Verdana" font-size="12">Has</text>
	</g>
</g>

<!-- Association Has2 -->
<g>
	<line x1="340" y1="531" x2="241" y2="623" stroke="#35978f" stroke-width="2"/>
	<text x="283" y="557.58" fill="#8c510a" font-family="Verdana" font-size="12">0,N</text>
	<line x1="137" y1="623" x2="241" y2="623" stroke="#35978f" stroke-width="2"/>
	<text x="182" y="640" fill="#8c510a" font-family="Verdana" font-size="12">0,N</text>
	<g>
		<path d="M246 598 a14 14 90 0 1 14 14 V623 h-38 V612 a14 14 90 0 1 14 -14" fill="#80cdc1" stroke="#80cdc1" stroke-width="0"/>
		<path d="M260 623 v11 a14 14 90 0 1 -14 14 H236 a14 14 90 0 1 -14 -14 V623 H38" fill="#c7eae5" stroke="#c7eae5" stroke-width="0"/>
		<rect x="222" y="598" width="38" height="50" fill="none" rx="14" stroke="#35978f" stroke-width="2"/>
		<line x1="222" y1="623" x2="260" y2="623" stroke="#35978f" stroke-width="1"/>
		<text x="230" y="615.75" fill="#000" font-family="Verdana" font-size="12">Has</text>
	</g>
</g>

<!-- Association Has4 -->
<g>
	<line x1="137" y1="623" x2="137" y2="724" stroke="#35978f" stroke-width="2"/>
	<text x="142" y="682" fill="#8c510a" font-family="Verdana" font-size="12">0,N</text>
	<line x1="241" y1="724" x2="137" y2="724" stroke="#35978f" stroke-width="2"/>
	<text x="175" y="741" fill="#8c510a" font-family="Verdana" font-size="12">1,1</text>
	<g>
		<path d="M142 699 a14 14 90 0 1 14 14 V724 h-38 V713 a14 14 90 0 1 14 -14" fill="#80cdc1" stroke="#80cdc1" stroke-width="0"/>
		<path d="M156 724 v11 a14 14 90 0 1 -14 14 H132 a14 14 90 0 1 -14 -14 V724 H38" fill="#c7eae5" stroke="#c7eae5" stroke-width="0"/>
		<rect x="118" y="699" width="38" height="50" fill="none" rx="14" stroke="#35978f" stroke-width="2"/>
		<line x1="118" y1="724" x2="156" y2="724" stroke="#35978f" stroke-width="1"/>
		<text x="126" y="716.75" fill="#000" font-family="Verdana" font-size="12">Has</text>
	</g>
</g>

<!-- Entity Bidder -->
<g>
	<g>
		<rect x="98" y="9" width="78" height="25" fill="#dfc27d" stroke="#dfc27d" stroke-width="0" opacity="1"/>
		<rect x="98" y="34" width="78" height="43" fill="#f6e8c3" stroke="#f6e8c3" stroke-width="0" opacity="1"/>
		<rect x="98" y="9" width="78" height="68" fill="none" stroke="#bf812d" stroke-width="2" opacity="1"/>
		<line x1="98" y1="34" x2="176" y2="34" stroke="#bf812d" stroke-width="1"/>
	</g>
	<text x="117" y="26.75" fill="#000" font-family="Verdana" font-size="12">Bidder</text>
	<text x="103" y="51.8" fill="#000" font-family="Verdana" font-size="12">name</text>
	<line x1="103" y1="54" x2="138" y2="54" stroke="#000" stroke-width="1"/>
	<text x="103" y="68.8" fill="#000" font-family="Verdana" font-size="12">description</text>
</g>

<!-- Entity Folder -->
<g>
	<g>
		<rect x="98" y="177" width="78" height="25" fill="#dfc27d" stroke="#dfc27d" stroke-width="0" opacity="1"/>
		<rect x="98" y="202" width="78" height="77" fill="#f6e8c3" stroke="#f6e8c3" stroke-width="0" opacity="1"/>
		<rect x="98" y="177" width="78" height="102" fill="none" stroke="#bf812d" stroke-width="2" opacity="1"/>
		<line x1="98" y1="202" x2="176" y2="202" stroke="#bf812d" stroke-width="1"/>
	</g>
	<text x="118" y="194.75" fill="#000" font-family="Verdana" font-size="12">Folder</text>
	<text x="103" y="219.8" fill="#000" font-family="Verdana" font-size="12">reference</text>
	<line x1="103" y1="222" x2="161" y2="222" stroke="#000" stroke-width="1"/>
	<text x="103" y="236.8" fill="#000" font-family="Verdana" font-size="12">label</text>
	<text x="103" y="253.8" fill="#000" font-family="Verdana" font-size="12">description</text>
	<text x="103" y="270.8" fill="#000" font-family="Verdana" font-size="12">status</text>
</g>

<!-- Entity Section -->
<g>
	<g>
		<rect x="301" y="287" width="78" height="25" fill="#dfc27d" stroke="#dfc27d" stroke-width="0" opacity="1"/>
		<rect x="301" y="312" width="78" height="59" fill="#f6e8c3" stroke="#f6e8c3" stroke-width="0" opacity="1"/>
		<rect x="301" y="287" width="78" height="84" fill="none" stroke="#bf812d" stroke-width="2" opacity="1"/>
		<line x1="301" y1="312" x2="379" y2="312" stroke="#bf812d" stroke-width="1"/>
	</g>
	<text x="318" y="304.75" fill="#000" font-family="Verdana" font-size="12">Section</text>
	<text x="306" y="329.8" fill="#000" font-family="Verdana" font-size="12">label</text>
	<line x1="306" y1="332" x2="335" y2="332" stroke="#000" stroke-width="1"/>
	<text x="306" y="346.8" fill="#000" font-family="Verdana" font-size="12">description</text>
	<text x="306" y="363.8" fill="#000" font-family="Verdana" font-size="12">order</text>
</g>

<!-- Entity User -->
<g>
	<g>
		<rect x="101" y="379" width="72" height="25" fill="#dfc27d" stroke="#dfc27d" stroke-width="0" opacity="1"/>
		<rect x="101" y="404" width="72" height="77" fill="#f6e8c3" stroke="#f6e8c3" stroke-width="0" opacity="1"/>
		<rect x="101" y="379" width="72" height="102" fill="none" stroke="#bf812d" stroke-width="2" opacity="1"/>
		<line x1="101" y1="404" x2="173" y2="404" stroke="#bf812d" stroke-width="1"/>
	</g>
	<text x="123" y="396.75" fill="#000" font-family="Verdana" font-size="12">User</text>
	<text x="106" y="421.8" fill="#000" font-family="Verdana" font-size="12">last name</text>
	<line x1="106" y1="424" x2="166" y2="424" stroke="#000" stroke-width="1"/>
	<text x="106" y="438.8" fill="#000" font-family="Verdana" font-size="12">first name</text>
	<text x="106" y="455.8" fill="#000" font-family="Verdana" font-size="12">email</text>
	<text x="106" y="472.8" fill="#000" font-family="Verdana" font-size="12">role</text>
</g>

<!-- Entity Chapter -->
<g>
	<g>
		<rect x="310" y="497" width="60" height="25" fill="#dfc27d" stroke="#dfc27d" stroke-width="0" opacity="1"/>
		<rect x="310" y="522" width="60" height="43" fill="#f6e8c3" stroke="#f6e8c3" stroke-width="0" opacity="1"/>
		<rect x="310" y="497" width="60" height="68" fill="none" stroke="#bf812d" stroke-width="2" opacity="1"/>
		<line x1="310" y1="522" x2="370" y2="522" stroke="#bf812d" stroke-width="1"/>
	</g>
	<text x="316" y="514.75" fill="#000" font-family="Verdana" font-size="12">Chapter</text>
	<text x="315" y="539.8" fill="#000" font-family="Verdana" font-size="12">label</text>
	<line x1="315" y1="542" x2="344" y2="542" stroke="#000" stroke-width="1"/>
	<text x="315" y="556.8" fill="#000" font-family="Verdana" font-size="12">order</text>
</g>

<!-- Entity Question -->
<g>
	<g>
		<rect x="97" y="581" width="80" height="25" fill="#dfc27d" stroke="#dfc27d" stroke-width="0" opacity="1"/>
		<rect x="97" y="606" width="80" height="59" fill="#f6e8c3" stroke="#f6e8c3" stroke-width="0" opacity="1"/>
		<rect x="97" y="581" width="80" height="84" fill="none" stroke="#bf812d" stroke-width="2" opacity="1"/>
		<line x1="97" y1="606" x2="177" y2="606" stroke="#bf812d" stroke-width="1"/>
	</g>
	<text x="110" y="598.75" fill="#000" font-family="Verdana" font-size="12">Question</text>
	<text x="102" y="623.8" fill="#000" font-family="Verdana" font-size="12">label</text>
	<line x1="102" y1="626" x2="131" y2="626" stroke="#000" stroke-width="1"/>
	<text x="102" y="640.8" fill="#000" font-family="Verdana" font-size="12">moderation</text>
	<text x="102" y="657.8" fill="#000" font-family="Verdana" font-size="12">order</text>
</g>

<!-- Entity Response -->
<g>
	<g>
		<rect x="201" y="690" width="80" height="25" fill="#dfc27d" stroke="#dfc27d" stroke-width="0" opacity="1"/>
		<rect x="201" y="715" width="80" height="43" fill="#f6e8c3" stroke="#f6e8c3" stroke-width="0" opacity="1"/>
		<rect x="201" y="690" width="80" height="68" fill="none" stroke="#bf812d" stroke-width="2" opacity="1"/>
		<line x1="201" y1="715" x2="281" y2="715" stroke="#bf812d" stroke-width="1"/>
	</g>
	<text x="212" y="707.75" fill="#000" font-family="Verdana" font-size="12">Response</text>
	<text x="206" y="732.8" fill="#000" font-family="Verdana" font-size="12">moderation</text>
	<line x1="206" y1="735" x2="276" y2="735" stroke="#000" stroke-width="1"/>
	<text x="206" y="749.8" fill="#000" font-family="Verdana" font-size="12">comment</text>
</g>
</svg>