<?xml version="1.0" encoding="utf-8"?>
<svg width="737" height="599" viewBox="0 0 737 599" xmlns="http://www.w3.org/2000/svg">
<rect id="frame" x="0" y="0" width="737" height="599" fill="#f5f5f5" stroke="none" stroke-width="0"/>

<!-- Association Has1 -->
<g>
	<line x1="376" y1="118" x2="265" y2="34" stroke="#35978f" stroke-width="2"/>
	<text x="306" y="96.76" fill="#8c510a" font-family="Verdana" font-size="12">0,N</text>
	<path d="M160 227 C212.05 215.14 247.05 150.81 265 34" fill="none" stroke="#35978f" stroke-width="2"/>
	<text x="203.24" y="160" fill="#8c510a" font-family="Verdana" font-size="12">0,N</text>
	<g>
		<path d="M270 9 a14 14 90 0 1 14 14 V34 h-38 V23 a14 14 90 0 1 14 -14" fill="#80cdc1" stroke="#80cdc1" stroke-width="0"/>
		<path d="M284 34 v11 a14 14 90 0 1 -14 14 H260 a14 14 90 0 1 -14 -14 V34 H38" fill="#c7eae5" stroke="#c7eae5" stroke-width="0"/>
		<rect x="246" y="9" width="38" height="50" fill="none" rx="14" stroke="#35978f" stroke-width="2"/>
		<line x1="246" y1="34" x2="284" y2="34" stroke="#35978f" stroke-width="1"/>
		<text x="254" y="26.75" fill="#000" font-family="Verdana" font-size="12">Has</text>
	</g>
</g>

<!-- Association Has3 -->
<g>
	<path d="M160 227 C117.33 168 117.33 131.67 160 118" fill="none" stroke="#35978f" stroke-width="2"/>
	<text x="135" y="160" fill="#8c510a" font-family="Verdana" font-size="12">0,N</text>
	<path d="M160 227 C202.67 168 202.67 131.67 160 118" fill="none" stroke="#35978f" stroke-width="2"/>
	<text x="163" y="160" fill="#8c510a" font-family="Verdana" font-size="12">0,N</text>
	<g>
		<path d="M165 93 a14 14 90 0 1 14 14 V118 h-38 V107 a14 14 90 0 1 14 -14" fill="#80cdc1" stroke="#80cdc1" stroke-width="0"/>
		<path d="M179 118 v11 a14 14 90 0 1 -14 14 H155 a14 14 90 0 1 -14 -14 V118 H38" fill="#c7eae5" stroke="#c7eae5" stroke-width="0"/>
		<rect x="141" y="93" width="38" height="50" fill="none" rx="14" stroke="#35978f" stroke-width="2"/>
		<line x1="141" y1="118" x2="179" y2="118" stroke="#35978f" stroke-width="1"/>
		<text x="149" y="110.75" fill="#000" font-family="Verdana" font-size="12">Has</text>
	</g>
</g>

<!-- Association Access to1 -->
<g>
	<line x1="376" y1="118" x2="265" y2="118" stroke="#35978f" stroke-width="2"/>
	<text x="306" y="135" fill="#8c510a" font-family="Verdana" font-size="12">0,N</text>
	<line x1="376" y1="370" x2="265" y2="118" stroke="#35978f" stroke-width="2"/>
	<text x="351.56" y="303" fill="#8c510a" font-family="Verdana" font-size="12">0,N</text>
	<g>
		<path d="M287 93 a14 14 90 0 1 14 14 V118 h-72 V107 a14 14 90 0 1 14 -14" fill="#80cdc1" stroke="#80cdc1" stroke-width="0"/>
		<path d="M301 118 v11 a14 14 90 0 1 -14 14 H243 a14 14 90 0 1 -14 -14 V118 H72" fill="#c7eae5" stroke="#c7eae5" stroke-width="0"/>
		<rect x="229" y="93" width="72" height="50" fill="none" rx="14" stroke="#35978f" stroke-width="2"/>
		<line x1="229" y1="118" x2="301" y2="118" stroke="#35978f" stroke-width="1"/>
		<text x="236" y="110.75" fill="#000" font-family="Verdana" font-size="12">Access to</text>
	</g>
</g>

<!-- Association Has -->
<g>
	<line x1="580" y1="227" x2="472" y2="118" stroke="#35978f" stroke-width="2"/>
	<text x="513" y="196.6" fill="#8c510a" font-family="Verdana" font-size="12">0,N</text>
	<line x1="376" y1="118" x2="472" y2="118" stroke="#35978f" stroke-width="2"/>
	<text x="424" y="135" fill="#8c510a" font-family="Verdana" font-size="12">0,N</text>
	<g>
		<path d="M477 93 a14 14 90 0 1 14 14 V118 h-38 V107 a14 14 90 0 1 14 -14" fill="#80cdc1" stroke="#80cdc1" stroke-width="0"/>
		<path d="M491 118 v11 a14 14 90 0 1 -14 14 H467 a14 14 90 0 1 -14 -14 V118 H38" fill="#c7eae5" stroke="#c7eae5" stroke-width="0"/>
		<rect x="453" y="93" width="38" height="50" fill="none" rx="14" stroke="#35978f" stroke-width="2"/>
		<line x1="453" y1="118" x2="491" y2="118" stroke="#35978f" stroke-width="1"/>
		<text x="461" y="110.75" fill="#000" font-family="Verdana" font-size="12">Has</text>
	</g>
</g>

<!-- Association Create -->
<g>
	<line x1="160" y1="227" x2="265" y2="227" stroke="#35978f" stroke-width="2"/>
	<text x="210" y="244" fill="#8c510a" font-family="Verdana" font-size="12">1,1</text>
	<line x1="376" y1="370" x2="265" y2="227" stroke="#35978f" stroke-width="2"/>
	<text x="311" y="332.22" fill="#8c510a" font-family="Verdana" font-size="12">0,N</text>
	<g>
		<path d="M279 202 a14 14 90 0 1 14 14 V227 h-56 V216 a14 14 90 0 1 14 -14" fill="#80cdc1" stroke="#80cdc1" stroke-width="0"/>
		<path d="M293 227 v11 a14 14 90 0 1 -14 14 H251 a14 14 90 0 1 -14 -14 V227 H56" fill="#c7eae5" stroke="#c7eae5" stroke-width="0"/>
		<rect x="237" y="202" width="56" height="50" fill="none" rx="14" stroke="#35978f" stroke-width="2"/>
		<line x1="237" y1="227" x2="293" y2="227" stroke="#35978f" stroke-width="1"/>
		<text x="245" y="219.75" fill="#000" font-family="Verdana" font-size="12">Create</text>
	</g>
</g>

<!-- Association Create1 -->
<g>
	<line x1="376" y1="118" x2="376" y2="227" stroke="#35978f" stroke-width="2"/>
	<text x="381" y="194" fill="#8c510a" font-family="Verdana" font-size="12">1,1</text>
	<line x1="376" y1="370" x2="376" y2="227" stroke="#35978f" stroke-width="2"/>
	<text x="381" y="303" fill="#8c510a" font-family="Verdana" font-size="12">0,N</text>
	<g>
		<path d="M390 202 a14 14 90 0 1 14 14 V227 h-56 V216 a14 14 90 0 1 14 -14" fill="#80cdc1" stroke="#80cdc1" stroke-width="0"/>
		<path d="M404 227 v11 a14 14 90 0 1 -14 14 H362 a14 14 90 0 1 -14 -14 V227 H56" fill="#c7eae5" stroke="#c7eae5" stroke-width="0"/>
		<rect x="348" y="202" width="56" height="50" fill="none" rx="14" stroke="#35978f" stroke-width="2"/>
		<line x1="348" y1="227" x2="404" y2="227" stroke="#35978f" stroke-width="1"/>
		<text x="356" y="219.75" fill="#000" font-family="Verdana" font-size="12">Create</text>
	</g>
</g>

<!-- Association Access to -->
<g>
	<line x1="580" y1="227" x2="472" y2="227" stroke="#35978f" stroke-width="2"/>
	<text x="513" y="244" fill="#8c510a" font-family="Verdana" font-size="12">0,N</text>
	<line x1="376" y1="370" x2="472" y2="227" stroke="#35978f" stroke-width="2"/>
	<text x="419" y="325.25" fill="#8c510a" font-family="Verdana" font-size="12">0,N</text>
	<g>
		<path d="M494 202 a14 14 90 0 1 14 14 V227 h-72 V216 a14 14 90 0 1 14 -14" fill="#80cdc1" stroke="#80cdc1" stroke-width="0"/>
		<path d="M508 227 v11 a14 14 90 0 1 -14 14 H450 a14 14 90 0 1 -14 -14 V227 H72" fill="#c7eae5" stroke="#c7eae5" stroke-width="0"/>
		<rect x="436" y="202" width="72" height="50" fill="none" rx="14" stroke="#35978f" stroke-width="2"/>
		<line x1="436" y1="227" x2="508" y2="227" stroke="#35978f" stroke-width="1"/>
		<text x="443" y="219.75" fill="#000" font-family="Verdana" font-size="12">Access to</text>
	</g>
</g>

<!-- Association Has2 -->
<g>
	<line x1="160" y1="227" x2="265" y2="370" stroke="#35978f" stroke-width="2"/>
	<text x="181.88" y="303" fill="#8c510a" font-family="Verdana" font-size="12">0,N</text>
	<line x1="265" y1="522" x2="265" y2="370" stroke="#35978f" stroke-width="2"/>
	<text x="270" y="446" fill="#8c510a" font-family="Verdana" font-size="12">0,N</text>
	<g>
		<path d="M270 345 a14 14 90 0 1 14 14 V370 h-38 V359 a14 14 90 0 1 14 -14" fill="#80cdc1" stroke="#80cdc1" stroke-width="0"/>
		<path d="M284 370 v11 a14 14 90 0 1 -14 14 H260 a14 14 90 0 1 -14 -14 V370 H38" fill="#c7eae5" stroke="#c7eae5" stroke-width="0"/>
		<rect x="246" y="345" width="38" height="50" fill="none" rx="14" stroke="#35978f" stroke-width="2"/>
		<line x1="246" y1="370" x2="284" y2="370" stroke="#35978f" stroke-width="1"/>
		<text x="254" y="362.75" fill="#000" font-family="Verdana" font-size="12">Has</text>
	</g>
</g>

<!-- Association Open -->
<g>
	<line x1="580" y1="227" x2="472" y2="370" stroke="#35978f" stroke-width="2"/>
	<text x="514" y="277.65" fill="#8c510a" font-family="Verdana" font-size="12">1,1</text>
	<line x1="376" y1="370" x2="472" y2="370" stroke="#35978f" stroke-width="2"/>
	<text x="419" y="387" fill="#8c510a" font-family="Verdana" font-size="12">0,N</text>
	<g>
		<path d="M482 345 a14 14 90 0 1 14 14 V370 h-48 V359 a14 14 90 0 1 14 -14" fill="#80cdc1" stroke="#80cdc1" stroke-width="0"/>
		<path d="M496 370 v11 a14 14 90 0 1 -14 14 H462 a14 14 90 0 1 -14 -14 V370 H48" fill="#c7eae5" stroke="#c7eae5" stroke-width="0"/>
		<rect x="448" y="345" width="48" height="50" fill="none" rx="14" stroke="#35978f" stroke-width="2"/>
		<line x1="448" y1="370" x2="496" y2="370" stroke="#35978f" stroke-width="1"/>
		<text x="456" y="362.75" fill="#000" font-family="Verdana" font-size="12">Open</text>
	</g>
</g>

<!-- Association Linked to -->
<g>
	<line x1="580" y1="227" x2="580" y2="370" stroke="#35978f" stroke-width="2"/>
	<text x="585" y="320" fill="#8c510a" font-family="Verdana" font-size="12">0,N</text>
	<line x1="688" y1="370" x2="580" y2="370" stroke="#35978f" stroke-width="2"/>
	<text x="621" y="387" fill="#8c510a" font-family="Verdana" font-size="12">0,N</text>
	<g>
		<path d="M602 345 a14 14 90 0 1 14 14 V370 h-72 V359 a14 14 90 0 1 14 -14" fill="#80cdc1" stroke="#80cdc1" stroke-width="0"/>
		<path d="M616 370 v11 a14 14 90 0 1 -14 14 H558 a14 14 90 0 1 -14 -14 V370 H72" fill="#c7eae5" stroke="#c7eae5" stroke-width="0"/>
		<rect x="544" y="345" width="72" height="50" fill="none" rx="14" stroke="#35978f" stroke-width="2"/>
		<line x1="544" y1="370" x2="616" y2="370" stroke="#35978f" stroke-width="1"/>
		<text x="552" y="362.75" fill="#000" font-family="Verdana" font-size="12">Linked to</text>
	</g>
</g>

<!-- Association Has4 -->
<g>
	<line x1="265" y1="522" x2="160" y2="522" stroke="#35978f" stroke-width="2"/>
	<text x="190" y="539" fill="#8c510a" font-family="Verdana" font-size="12">0,N</text>
	<line x1="59" y1="522" x2="160" y2="522" stroke="#35978f" stroke-width="2"/>
	<text x="114" y="539" fill="#8c510a" font-family="Verdana" font-size="12">1,1</text>
	<g>
		<path d="M165 497 a14 14 90 0 1 14 14 V522 h-38 V511 a14 14 90 0 1 14 -14" fill="#80cdc1" stroke="#80cdc1" stroke-width="0"/>
		<path d="M179 522 v11 a14 14 90 0 1 -14 14 H155 a14 14 90 0 1 -14 -14 V522 H38" fill="#c7eae5" stroke="#c7eae5" stroke-width="0"/>
		<rect x="141" y="497" width="38" height="50" fill="none" rx="14" stroke="#35978f" stroke-width="2"/>
		<line x1="141" y1="522" x2="179" y2="522" stroke="#35978f" stroke-width="1"/>
		<text x="149" y="514.75" fill="#000" font-family="Verdana" font-size="12">Has</text>
	</g>
</g>

<!-- Association Create2 -->
<g>
	<line x1="265" y1="522" x2="376" y2="522" stroke="#35978f" stroke-width="2"/>
	<text x="318" y="539" fill="#8c510a" font-family="Verdana" font-size="12">1,1</text>
	<line x1="376" y1="370" x2="376" y2="522" stroke="#35978f" stroke-width="2"/>
	<text x="381" y="446" fill="#8c510a" font-family="Verdana" font-size="12">0,N</text>
	<g>
		<path d="M390 497 a14 14 90 0 1 14 14 V522 h-56 V511 a14 14 90 0 1 14 -14" fill="#80cdc1" stroke="#80cdc1" stroke-width="0"/>
		<path d="M404 522 v11 a14 14 90 0 1 -14 14 H362 a14 14 90 0 1 -14 -14 V522 H56" fill="#c7eae5" stroke="#c7eae5" stroke-width="0"/>
		<rect x="348" y="497" width="56" height="50" fill="none" rx="14" stroke="#35978f" stroke-width="2"/>
		<line x1="348" y1="522" x2="404" y2="522" stroke="#35978f" stroke-width="1"/>
		<text x="356" y="514.75" fill="#000" font-family="Verdana" font-size="12">Create</text>
	</g>
</g>

<!-- Entity Section -->
<g>
	<g>
		<rect x="333" y="59" width="86" height="25" fill="#dfc27d" stroke="#dfc27d" stroke-width="0" opacity="1"/>
		<rect x="333" y="84" width="86" height="93" fill="#f6e8c3" stroke="#f6e8c3" stroke-width="0" opacity="1"/>
		<rect x="333" y="59" width="86" height="118" fill="none" stroke="#bf812d" stroke-width="2" opacity="1"/>
		<line x1="333" y1="84" x2="419" y2="84" stroke="#bf812d" stroke-width="1"/>
	</g>
	<text x="354" y="76.75" fill="#000" font-family="Verdana" font-size="12">Section</text>
	<text x="338" y="101.8" fill="#000" font-family="Verdana" font-size="12">CodeSection</text>
	<line x1="338" y1="104" x2="414" y2="104" stroke="#000" stroke-width="1"/>
	<text x="338" y="118.8" fill="#000" font-family="Verdana" font-size="12">label</text>
	<text x="338" y="135.8" fill="#000" font-family="Verdana" font-size="12">order</text>
	<text x="338" y="152.8" fill="#000" font-family="Verdana" font-size="12">created_at</text>
	<text x="338" y="169.8" fill="#000" font-family="Verdana" font-size="12">updated_at</text>
</g>

<!-- Entity Chapter -->
<g>
	<g>
		<rect x="115" y="168" width="90" height="25" fill="#dfc27d" stroke="#dfc27d" stroke-width="0" opacity="1"/>
		<rect x="115" y="193" width="90" height="93" fill="#f6e8c3" stroke="#f6e8c3" stroke-width="0" opacity="1"/>
		<rect x="115" y="168" width="90" height="118" fill="none" stroke="#bf812d" stroke-width="2" opacity="1"/>
		<line x1="115" y1="193" x2="205" y2="193" stroke="#bf812d" stroke-width="1"/>
	</g>
	<text x="136" y="185.75" fill="#000" font-family="Verdana" font-size="12">Chapter</text>
	<text x="120" y="210.8" fill="#000" font-family="Verdana" font-size="12">CodeChapter</text>
	<line x1="120" y1="213" x2="199" y2="213" stroke="#000" stroke-width="1"/>
	<text x="120" y="227.8" fill="#000" font-family="Verdana" font-size="12">label</text>
	<text x="120" y="244.8" fill="#000" font-family="Verdana" font-size="12">order</text>
	<text x="120" y="261.8" fill="#000" font-family="Verdana" font-size="12">created_at</text>
	<text x="120" y="278.8" fill="#000" font-family="Verdana" font-size="12">updated_at</text>
</g>

<!-- Entity Folder -->
<g>
	<g>
		<rect x="540" y="151" width="80" height="25" fill="#dfc27d" stroke="#dfc27d" stroke-width="0" opacity="1"/>
		<rect x="540" y="176" width="80" height="127" fill="#f6e8c3" stroke="#f6e8c3" stroke-width="0" opacity="1"/>
		<rect x="540" y="151" width="80" height="152" fill="none" stroke="#bf812d" stroke-width="2" opacity="1"/>
		<line x1="540" y1="176" x2="620" y2="176" stroke="#bf812d" stroke-width="1"/>
	</g>
	<text x="561" y="168.75" fill="#000" font-family="Verdana" font-size="12">Folder</text>
	<text x="545" y="193.8" fill="#000" font-family="Verdana" font-size="12">CodeFolder</text>
	<line x1="545" y1="196" x2="614" y2="196" stroke="#000" stroke-width="1"/>
	<text x="545" y="210.8" fill="#000" font-family="Verdana" font-size="12">reference</text>
	<text x="545" y="227.8" fill="#000" font-family="Verdana" font-size="12">label</text>
	<text x="545" y="244.8" fill="#000" font-family="Verdana" font-size="12">description</text>
	<text x="545" y="261.8" fill="#000" font-family="Verdana" font-size="12">status</text>
	<text x="545" y="278.8" fill="#000" font-family="Verdana" font-size="12">created_at</text>
	<text x="545" y="295.8" fill="#000" font-family="Verdana" font-size="12">updated_at</text>
</g>

<!-- Entity User -->
<g>
	<g>
		<rect x="338" y="311" width="76" height="25" fill="#dfc27d" stroke="#dfc27d" stroke-width="0" opacity="1"/>
		<rect x="338" y="336" width="76" height="93" fill="#f6e8c3" stroke="#f6e8c3" stroke-width="0" opacity="1"/>
		<rect x="338" y="311" width="76" height="118" fill="none" stroke="#bf812d" stroke-width="2" opacity="1"/>
		<line x1="338" y1="336" x2="414" y2="336" stroke="#bf812d" stroke-width="1"/>
	</g>
	<text x="362" y="328.75" fill="#000" font-family="Verdana" font-size="12">User</text>
	<text x="343" y="353.8" fill="#000" font-family="Verdana" font-size="12">CodeUser</text>
	<line x1="343" y1="356" x2="402" y2="356" stroke="#000" stroke-width="1"/>
	<text x="343" y="370.8" fill="#000" font-family="Verdana" font-size="12">last_name</text>
	<text x="343" y="387.8" fill="#000" font-family="Verdana" font-size="12">first_name</text>
	<text x="343" y="404.8" fill="#000" font-family="Verdana" font-size="12">email</text>
	<text x="343" y="421.8" fill="#000" font-family="Verdana" font-size="12">role</text>
</g>

<!-- Entity Bidder -->
<g>
	<g>
		<rect x="648" y="328" width="80" height="25" fill="#dfc27d" stroke="#dfc27d" stroke-width="0" opacity="1"/>
		<rect x="648" y="353" width="80" height="59" fill="#f6e8c3" stroke="#f6e8c3" stroke-width="0" opacity="1"/>
		<rect x="648" y="328" width="80" height="84" fill="none" stroke="#bf812d" stroke-width="2" opacity="1"/>
		<line x1="648" y1="353" x2="728" y2="353" stroke="#bf812d" stroke-width="1"/>
	</g>
	<text x="668" y="345.75" fill="#000" font-family="Verdana" font-size="12">Bidder</text>
	<text x="653" y="370.8" fill="#000" font-family="Verdana" font-size="12">CodeBidder</text>
	<line x1="653" y1="373" x2="723" y2="373" stroke="#000" stroke-width="1"/>
	<text x="653" y="387.8" fill="#000" font-family="Verdana" font-size="12">name</text>
	<text x="653" y="404.8" fill="#000" font-family="Verdana" font-size="12">description</text>
</g>

<!-- Entity Response -->
<g>
	<g>
		<rect x="9" y="463" width="100" height="25" fill="#dfc27d" stroke="#dfc27d" stroke-width="0" opacity="1"/>
		<rect x="9" y="488" width="100" height="93" fill="#f6e8c3" stroke="#f6e8c3" stroke-width="0" opacity="1"/>
		<rect x="9" y="463" width="100" height="118" fill="none" stroke="#bf812d" stroke-width="2" opacity="1"/>
		<line x1="9" y1="488" x2="109" y2="488" stroke="#bf812d" stroke-width="1"/>
	</g>
	<text x="30" y="480.75" fill="#000" font-family="Verdana" font-size="12">Response</text>
	<text x="14" y="505.8" fill="#000" font-family="Verdana" font-size="12">CodeResponse</text>
	<line x1="14" y1="508" x2="103" y2="508" stroke="#000" stroke-width="1"/>
	<text x="14" y="522.8" fill="#000" font-family="Verdana" font-size="12">moderation</text>
	<text x="14" y="539.8" fill="#000" font-family="Verdana" font-size="12">comment</text>
	<text x="14" y="556.8" fill="#000" font-family="Verdana" font-size="12">created_at</text>
	<text x="14" y="573.8" fill="#000" font-family="Verdana" font-size="12">updated_at</text>
</g>

<!-- Entity Question -->
<g>
	<g>
		<rect x="217" y="454" width="96" height="25" fill="#dfc27d" stroke="#dfc27d" stroke-width="0" opacity="1"/>
		<rect x="217" y="479" width="96" height="111" fill="#f6e8c3" stroke="#f6e8c3" stroke-width="0" opacity="1"/>
		<rect x="217" y="454" width="96" height="136" fill="none" stroke="#bf812d" stroke-width="2" opacity="1"/>
		<line x1="217" y1="479" x2="313" y2="479" stroke="#bf812d" stroke-width="1"/>
	</g>
	<text x="238" y="471.75" fill="#000" font-family="Verdana" font-size="12">Question</text>
	<text x="222" y="496.8" fill="#000" font-family="Verdana" font-size="12">CodeQuestion</text>
	<line x1="222" y1="499" x2="307" y2="499" stroke="#000" stroke-width="1"/>
	<text x="222" y="513.8" fill="#000" font-family="Verdana" font-size="12">label</text>
	<text x="222" y="530.8" fill="#000" font-family="Verdana" font-size="12">moderation</text>
	<text x="222" y="547.8" fill="#000" font-family="Verdana" font-size="12">order</text>
	<text x="222" y="564.8" fill="#000" font-family="Verdana" font-size="12">created_at</text>
	<text x="222" y="581.8" fill="#000" font-family="Verdana" font-size="12">updated_at</text>
</g>
</svg>